<?xml version="1.0" encoding="UTF-8" standalone="no"?>
<svg
   xmlns:dc="http://purl.org/dc/elements/1.1/"
   xmlns:cc="http://creativecommons.org/ns#"
   xmlns:rdf="http://www.w3.org/1999/02/22-rdf-syntax-ns#"
   xmlns:svg="http://www.w3.org/2000/svg"
   xmlns="http://www.w3.org/2000/svg"
   xmlns:sodipodi="http://sodipodi.sourceforge.net/DTD/sodipodi-0.dtd"
   xmlns:inkscape="http://www.inkscape.org/namespaces/inkscape"
   width="180mm"
   height="308mm"
   viewBox="0 0 180 308"
   version="1.1"
   id="svg123"
   inkscape:version="1.0.1 (3bc2e813f5, 2020-09-07)"
   sodipodi:docname="TrayInsert_part2.svg">
  <defs
     id="defs117" />
  <sodipodi:namedview
     id="base"
     pagecolor="#ffffff"
     bordercolor="#666666"
     borderopacity="1.0"
     inkscape:pageopacity="0.0"
     inkscape:pageshadow="2"
     inkscape:zoom="0.87671236"
     inkscape:cx="233.58871"
     inkscape:cy="374.5189"
     inkscape:document-units="mm"
     inkscape:current-layer="layer1"
     inkscape:document-rotation="0"
     showgrid="false"
     inkscape:window-width="1311"
     inkscape:window-height="1023"
     inkscape:window-x="0"
     inkscape:window-y="0"
     inkscape:window-maximized="0" />
  <metadata
     id="metadata120">
    <rdf:RDF>
      <cc:Work
         rdf:about="">
        <dc:format>image/svg+xml</dc:format>
        <dc:type
           rdf:resource="http://purl.org/dc/dcmitype/StillImage" />
        <dc:title />
      </cc:Work>
    </rdf:RDF>
  </metadata>
  <g
     inkscape:label="Ebene 1"
     inkscape:groupmode="layer"
     id="layer1">
    <g
       id="p-1"
       style="fill:none;stroke-linecap:round;stroke-linejoin:round"
       transform="translate(0.16357766,-296.73437)">
      <path
         d="M 9.0616667,416.24 H 22.466 c 0.066,0 0.12,-0.054 0.12,-0.12 v -7.38 c 0,-0.12 -0.12,0 0,0 h 0.56 c 0.12,0 0,-0.12 0,0 v 7.38 c 0,0.066 0.054,0.12 0.12,0.12 h 12.346 c 0.066,0 0.12,-0.054 0.12,-0.12 v -7.38 c 0,-0.12 -0.12,0 0,0 h 0.56 c 0.12,0 0,-0.12 0,0 v 7.38 c 0,0.066 0.053,0.12 0.12,0.12 h 12.346 c 0.066,0 0.12,-0.054 0.12,-0.12 v -7.38 c 0,-0.12 -0.12,0 -10e-4,0 h 0.561 c 0.12,0 0,-0.12 0,0 v 7.38 c 0,0.066 0.053,0.12 0.12,0.12 h 12.345 c 0.067,0 0.12,-0.054 0.12,-0.12 v -7.38 c 0,-0.12 -0.12,0 0,0 h 0.56 c 0.12,0 0,-0.12 0,0 v 7.38 c 0,0.066 0.054,0.12 0.12,0.12 h 12.346 c 0.066,0 0.12,-0.054 0.12,-0.12 v -7.38 c 0,-0.12 -0.12,0 0,0 h 0.56 c 0.12,0 0,-0.12 0,0 v 7.38 c 0,0.066 0.054,0.12 0.12,0.12 h 12.346 c 0.066,0 0.12,-0.054 0.12,-0.12 v -7.38 c 0,-0.12 -0.12,0 0,0 h 0.56 c 0.12,0 0,-0.12 0,0 v 7.38 c 0,0.066 0.054,0.12 0.12,0.12 h 12.346 c 0.066,0 0.12,-0.054 0.12,-0.12 v -7.38 c 0,-0.12 -0.12,0 0,0 h 0.56 c 0.12,0 0,-0.12 0,0 v 7.38 c 0,0.066 0.054,0.12 0.12,0.12 h 12.346 c 0.066,0 0.12,-0.054 0.12,-0.12 v -7.38 c 0,-0.12 -0.12,0 0,0 h 0.56 c 0.12,0 0,-0.12 0,0 v 7.38 c 0,0.066 0.053,0.12 0.12,0.12 h 12.345 c 0.067,0 0.12,-0.054 0.12,-0.12 v -7.38 c 0,-0.12 -0.12,0 0.001,0 h 0.559 c 0.12,0 0,-0.12 0,0 v 7.38 c 0,0.066 0.054,0.12 0.12,0.12 h 12.346 c 0.067,0 0.12,-0.054 0.12,-0.12 v -7.38 c 0,-0.12 -0.12,0 0,0 h 0.56 c 0.12,0 0,-0.12 0,0 v 7.38 c 0,0.066 0.054,0.12 0.12,0.12 h 12.346 c 0.066,0 0.12,-0.054 0.12,-0.12 v -7.38 c 0,-0.12 -0.12,0 0,0 h 0.56 c 0.12,0 0,-0.12 0,0 v 7.38 c 0,0.066 0.054,0.12 0.12,0.12 h 13.40433 c 0.066,0 0.12,-0.054 0.12,-0.12 v -15 c 0,-0.066 -0.054,-0.12 -0.12,-0.12 H 9.0616667 c -0.066,0 -0.12,0.054 -0.12,0.12 v 15 c 0,0.066 0.054,0.12 0.12,0.12 z"
         stroke="#000000"
         stroke-width="0.24"
         id="path11"
         sodipodi:nodetypes="sssssssssssssssssssssssssssssssssssssssssssssssssssssssssssssssssssssssssssssssssssssssssssssssss" />
    </g>
    <g
       id="p-2"
       style="fill:none;stroke-linecap:round;stroke-linejoin:round"
       transform="translate(0.16357766,-296.73437)">
      <path
         d="M 9.0616667,400.6 H 22.466 c 0.066,0 0.12,-0.054 0.12,-0.12 v -7.38 c 0,-0.12 -0.12,0 0,0 h 0.56 c 0.12,0 0,-0.12 0,0 v 7.38 c 0,0.066 0.054,0.12 0.12,0.12 h 12.346 c 0.066,0 0.12,-0.054 0.12,-0.12 v -7.38 c 0,-0.12 -0.12,0 0,0 h 0.56 c 0.12,0 0,-0.12 0,0 v 7.38 c 0,0.066 0.053,0.12 0.12,0.12 h 12.346 c 0.066,0 0.12,-0.054 0.12,-0.12 v -7.38 c 0,-0.12 -0.12,0 -10e-4,0 h 0.561 c 0.12,0 0,-0.12 0,0 v 7.38 c 0,0.066 0.053,0.12 0.12,0.12 h 12.345 c 0.067,0 0.12,-0.054 0.12,-0.12 v -7.38 c 0,-0.12 -0.12,0 0,0 h 0.56 c 0.12,0 0,-0.12 0,0 v 7.38 c 0,0.066 0.054,0.12 0.12,0.12 h 12.346 c 0.066,0 0.12,-0.054 0.12,-0.12 v -7.38 c 0,-0.12 -0.12,0 0,0 h 0.56 c 0.12,0 0,-0.12 0,0 v 7.38 c 0,0.066 0.054,0.12 0.12,0.12 h 12.346 c 0.066,0 0.12,-0.054 0.12,-0.12 v -7.38 c 0,-0.12 -0.12,0 0,0 h 0.56 c 0.12,0 0,-0.12 0,0 v 7.38 c 0,0.066 0.054,0.12 0.12,0.12 h 12.346 c 0.066,0 0.12,-0.054 0.12,-0.12 v -7.38 c 0,-0.12 -0.12,0 0,0 h 0.56 c 0.12,0 0,-0.12 0,0 v 7.38 c 0,0.066 0.054,0.12 0.12,0.12 h 12.346 c 0.066,0 0.12,-0.054 0.12,-0.12 v -7.38 c 0,-0.12 -0.12,0 0,0 h 0.56 c 0.12,0 0,-0.12 0,0 v 7.38 c 0,0.066 0.053,0.12 0.12,0.12 h 12.345 c 0.067,0 0.12,-0.054 0.12,-0.12 v -7.38 c 0,-0.12 -0.12,0 0.001,0 h 0.559 c 0.12,0 0,-0.12 0,0 v 7.38 c 0,0.066 0.054,0.12 0.12,0.12 h 12.346 c 0.067,0 0.12,-0.054 0.12,-0.12 v -7.38 c 0,-0.12 -0.12,0 0,0 h 0.56 c 0.12,0 0,-0.12 0,0 v 7.38 c 0,0.066 0.054,0.12 0.12,0.12 h 12.346 c 0.066,0 0.12,-0.054 0.12,-0.12 v -7.38 c 0,-0.12 -0.12,0 0,0 h 0.56 c 0.12,0 0,-0.12 0,0 v 7.38 c 0,0.066 0.054,0.12 0.12,0.12 h 13.40433 c 0.066,0 0.12,-0.054 0.12,-0.12 v -15 c 0,-0.066 -0.054,-0.12 -0.12,-0.12 H 9.0616667 c -0.066,0 -0.12,0.054 -0.12,0.12 v 15 c 0,0.066 0.054,0.12 0.12,0.12 z"
         stroke="#000000"
         stroke-width="0.24"
         id="path14"
         sodipodi:nodetypes="sssssssssssssssssssssssssssssssssssssssssssssssssssssssssssssssssssssssssssssssssssssssssssssssss" />
    </g>
    <g
       id="p-3"
       style="fill:none;stroke-linecap:round;stroke-linejoin:round"
       transform="translate(0.16357766,-296.73437)">
      <path
         d="M 9.0616667,384.96 H 22.466 c 0.066,0 0.12,-0.054 0.12,-0.12 v -7.38 c 0,-0.12 -0.12,0 0,0 h 0.56 c 0.12,0 0,-0.12 0,0 v 7.38 c 0,0.066 0.054,0.12 0.12,0.12 h 12.346 c 0.066,0 0.12,-0.054 0.12,-0.12 v -7.38 c 0,-0.12 -0.12,0 0,0 h 0.56 c 0.12,0 0,-0.12 0,0 v 7.38 c 0,0.066 0.053,0.12 0.12,0.12 h 12.346 c 0.066,0 0.12,-0.054 0.12,-0.12 v -7.38 c 0,-0.12 -0.12,0 0,0 h 0.56 c 0.12,0 0,-0.12 0,0 v 7.38 c 0,0.066 0.053,0.12 0.12,0.12 h 12.345 c 0.067,0 0.12,-0.054 0.12,-0.12 v -7.38 c 0,-0.12 -0.12,0 0,0 h 0.56 c 0.12,0 0,-0.12 0,0 v 7.38 c 0,0.066 0.054,0.12 0.12,0.12 h 12.346 c 0.066,0 0.12,-0.054 0.12,-0.12 v -7.38 c 0,-0.12 -0.12,0 0,0 h 0.56 c 0.12,0 0,-0.12 0,0 v 7.38 c 0,0.066 0.054,0.12 0.12,0.12 h 12.346 c 0.066,0 0.12,-0.054 0.12,-0.12 v -7.38 c 0,-0.12 -0.12,0 0,0 h 0.56 c 0.12,0 0,-0.12 0,0 v 7.38 c 0,0.066 0.054,0.12 0.12,0.12 h 12.346 c 0.066,0 0.12,-0.054 0.12,-0.12 v -7.38 c 0,-0.12 -0.12,0 0,0 h 0.56 c 0.12,0 0,-0.12 0,0 v 7.38 c 0,0.066 0.054,0.12 0.12,0.12 h 12.346 c 0.066,0 0.12,-0.054 0.12,-0.12 v -7.38 c 0,-0.12 -0.12,0 0,0 h 0.56 c 0.12,0 0,-0.12 0,0 v 7.38 c 0,0.066 0.053,0.12 0.12,0.12 h 12.345 c 0.067,0 0.12,-0.054 0.12,-0.12 v -7.38 c 0,-0.12 -0.12,0 0,0 h 0.56 c 0.12,0 0,-0.12 0,0 v 7.38 c 0,0.066 0.054,0.12 0.12,0.12 h 12.346 c 0.067,0 0.12,-0.054 0.12,-0.12 v -7.38 c 0,-0.12 -0.12,0 0,0 h 0.56 c 0.12,0 0,-0.12 0,0 v 7.38 c 0,0.066 0.054,0.12 0.12,0.12 h 12.346 c 0.066,0 0.12,-0.054 0.12,-0.12 v -7.38 c 0,-0.12 -0.12,0 0,0 h 0.56 c 0.12,0 0,-0.12 0,0 v 7.38 c 0,0.066 0.054,0.12 0.12,0.12 h 13.40433 c 0.066,0 0.12,-0.054 0.12,-0.12 v -15 c 0,-0.066 -0.054,-0.12 -0.12,-0.12 H 9.0616667 c -0.066,0 -0.12,0.054 -0.12,0.12 v 15 c 0,0.066 0.054,0.12 0.12,0.12 z"
         stroke="#000000"
         stroke-width="0.24"
         id="path17"
         sodipodi:nodetypes="sssssssssssssssssssssssssssssssssssssssssssssssssssssssssssssssssssssssssssssssssssssssssssssssss" />
    </g>
    <g
       id="p-4"
       style="fill:none;stroke-linecap:round;stroke-linejoin:round"
       transform="translate(0.16357766,-296.73437)">
      <path
         d="M 9.0616667,369.32 H 22.466 c 0.066,0 0.12,-0.054 0.12,-0.12 v -7.38 c 0,-0.12 -0.12,0 0,0 h 0.56 c 0.12,0 0,-0.12 0,0 v 7.38 c 0,0.066 0.054,0.12 0.12,0.12 h 12.346 c 0.066,0 0.12,-0.054 0.12,-0.12 v -7.38 c 0,-0.12 -0.12,0 0,0 h 0.56 c 0.12,0 0,-0.12 0,0 v 7.38 c 0,0.066 0.053,0.12 0.12,0.12 h 12.346 c 0.066,0 0.12,-0.054 0.12,-0.12 v -7.38 c 0,-0.12 -0.12,0 -10e-4,0 h 0.561 c 0.12,0 0,-0.12 0,0 v 7.38 c 0,0.066 0.053,0.12 0.12,0.12 h 12.345 c 0.067,0 0.12,-0.054 0.12,-0.12 v -7.38 c 0,-0.12 -0.12,0 0,0 h 0.56 c 0.12,0 0,-0.12 0,0 v 7.38 c 0,0.066 0.054,0.12 0.12,0.12 h 12.346 c 0.066,0 0.12,-0.054 0.12,-0.12 v -7.38 c 0,-0.12 -0.12,0 0,0 h 0.56 c 0.12,0 0,-0.12 0,0 v 7.38 c 0,0.066 0.054,0.12 0.12,0.12 h 12.346 c 0.066,0 0.12,-0.054 0.12,-0.12 v -7.38 c 0,-0.12 -0.12,0 0,0 h 0.56 c 0.12,0 0,-0.12 0,0 v 7.38 c 0,0.066 0.054,0.12 0.12,0.12 h 12.346 c 0.066,0 0.12,-0.054 0.12,-0.12 v -7.38 c 0,-0.12 -0.12,0 0,0 h 0.56 c 0.12,0 0,-0.12 0,0 v 7.38 c 0,0.066 0.054,0.12 0.12,0.12 h 12.346 c 0.066,0 0.12,-0.054 0.12,-0.12 v -7.38 c 0,-0.12 -0.12,0 0,0 h 0.56 c 0.12,0 0,-0.12 0,0 v 7.38 c 0,0.066 0.053,0.12 0.12,0.12 h 12.345 c 0.067,0 0.12,-0.054 0.12,-0.12 v -7.38 c 0,-0.12 -0.12,0 0,0 h 0.56 c 0.12,0 0,-0.12 0,0 v 7.38 c 0,0.066 0.054,0.12 0.12,0.12 h 12.346 c 0.067,0 0.12,-0.054 0.12,-0.12 v -7.38 c 0,-0.12 -0.12,0 0,0 h 0.56 c 0.12,0 0,-0.12 0,0 v 7.38 c 0,0.066 0.054,0.12 0.12,0.12 h 12.346 c 0.066,0 0.12,-0.054 0.12,-0.12 v -7.38 c 0,-0.12 -0.12,0 0,0 h 0.56 c 0.12,0 0,-0.12 0,0 v 7.38 c 0,0.066 0.054,0.12 0.12,0.12 h 13.40433 c 0.066,0 0.12,-0.054 0.12,-0.12 v -15 c 0,-0.066 -0.054,-0.12 -0.12,-0.12 H 9.0616667 c -0.066,0 -0.12,0.054 -0.12,0.12 v 15 c 0,0.066 0.054,0.12 0.12,0.12 z"
         stroke="#000000"
         stroke-width="0.24"
         id="path20"
         sodipodi:nodetypes="sssssssssssssssssssssssssssssssssssssssssssssssssssssssssssssssssssssssssssssssssssssssssssssssss" />
    </g>
    <g
       id="p-5"
       style="fill:none;stroke-linecap:round;stroke-linejoin:round"
       transform="translate(0.16357766,-296.73437)">
      <path
         d="M 9.0616667,353.68 H 22.466 c 0.066,0 0.12,-0.054 0.12,-0.12 v -7.38 c 0,-0.12 -0.12,0 0,0 h 0.56 c 0.12,0 0,-0.12 0,0 v 7.38 c 0,0.066 0.054,0.12 0.12,0.12 h 12.346 c 0.066,0 0.12,-0.054 0.12,-0.12 v -7.38 c 0,-0.12 -0.12,0 0,0 h 0.56 c 0.12,0 0,-0.12 0,0 v 7.38 c 0,0.066 0.053,0.12 0.12,0.12 h 12.346 c 0.066,0 0.12,-0.054 0.12,-0.12 v -7.38 c 0,-0.12 -0.12,0 -10e-4,0 h 0.561 c 0.12,0 0,-0.12 0,0 v 7.38 c 0,0.066 0.053,0.12 0.12,0.12 h 12.345 c 0.067,0 0.12,-0.054 0.12,-0.12 v -7.38 c 0,-0.12 -0.12,0 0,0 h 0.56 c 0.12,0 0,-0.12 0,0 v 7.38 c 0,0.066 0.054,0.12 0.12,0.12 h 12.346 c 0.066,0 0.12,-0.054 0.12,-0.12 v -7.38 c 0,-0.12 -0.12,0 0,0 h 0.56 c 0.12,0 0,-0.12 0,0 v 7.38 c 0,0.066 0.054,0.12 0.12,0.12 h 12.346 c 0.066,0 0.12,-0.054 0.12,-0.12 v -7.38 c 0,-0.12 -0.12,0 0,0 h 0.56 c 0.12,0 0,-0.12 0,0 v 7.38 c 0,0.066 0.054,0.12 0.12,0.12 h 12.346 c 0.066,0 0.12,-0.054 0.12,-0.12 v -7.38 c 0,-0.12 -0.12,0 0,0 h 0.56 c 0.12,0 0,-0.12 0,0 v 7.38 c 0,0.066 0.054,0.12 0.12,0.12 h 12.346 c 0.066,0 0.12,-0.054 0.12,-0.12 v -7.38 c 0,-0.12 -0.12,0 0,0 h 0.56 c 0.12,0 0,-0.12 0,0 v 7.38 c 0,0.066 0.053,0.12 0.12,0.12 h 12.345 c 0.067,0 0.12,-0.054 0.12,-0.12 v -7.38 c 0,-0.12 -0.12,0 0.001,0 h 0.559 c 0.12,0 0,-0.12 0,0 v 7.38 c 0,0.066 0.054,0.12 0.12,0.12 h 12.346 c 0.067,0 0.12,-0.054 0.12,-0.12 v -7.38 c 0,-0.12 -0.12,0 0,0 h 0.56 c 0.12,0 0,-0.12 0,0 v 7.38 c 0,0.066 0.054,0.12 0.12,0.12 h 12.346 c 0.066,0 0.12,-0.054 0.12,-0.12 v -7.38 c 0,-0.12 -0.12,0 0,0 h 0.56 c 0.12,0 0,-0.12 0,0 v 7.38 c 0,0.066 0.054,0.12 0.12,0.12 h 13.40433 c 0.066,0 0.12,-0.054 0.12,-0.12 v -15 c 0,-0.066 -0.054,-0.12 -0.12,-0.12 H 9.0616667 c -0.066,0 -0.12,0.054 -0.12,0.12 v 15 c 0,0.066 0.054,0.12 0.12,0.12 z"
         stroke="#000000"
         stroke-width="0.24"
         id="path23"
         sodipodi:nodetypes="sssssssssssssssssssssssssssssssssssssssssssssssssssssssssssssssssssssssssssssssssssssssssssssssss" />
    </g>
    <g
       id="p-6"
       style="fill:none;stroke-linecap:round;stroke-linejoin:round"
       transform="translate(0.16357766,-296.73437)">
      <path
         d="M 9.0616667,338.04 H 22.466 c 0.066,0 0.12,-0.054 0.12,-0.12 v -7.38 c 0,-0.12 -0.12,0 0,0 h 0.56 c 0.12,0 0,-0.12 0,0 v 7.38 c 0,0.066 0.054,0.12 0.12,0.12 h 12.346 c 0.066,0 0.12,-0.054 0.12,-0.12 v -7.38 c 0,-0.12 -0.12,0 0,0 h 0.56 c 0.12,0 0,-0.12 0,0 v 7.38 c 0,0.066 0.053,0.12 0.12,0.12 h 12.346 c 0.066,0 0.12,-0.054 0.12,-0.12 v -7.38 c 0,-0.12 -0.12,0 0,0 h 0.56 c 0.12,0 0,-0.12 0,0 v 7.38 c 0,0.066 0.053,0.12 0.12,0.12 h 12.345 c 0.067,0 0.12,-0.054 0.12,-0.12 v -7.38 c 0,-0.12 -0.12,0 0,0 h 0.56 c 0.12,0 0,-0.12 0,0 v 7.38 c 0,0.066 0.054,0.12 0.12,0.12 h 12.346 c 0.066,0 0.12,-0.054 0.12,-0.12 v -7.38 c 0,-0.12 -0.12,0 0,0 h 0.56 c 0.12,0 0,-0.12 0,0 v 7.38 c 0,0.066 0.054,0.12 0.12,0.12 h 12.346 c 0.066,0 0.12,-0.054 0.12,-0.12 v -7.38 c 0,-0.12 -0.12,0 0,0 h 0.56 c 0.12,0 0,-0.12 0,0 v 7.38 c 0,0.066 0.054,0.12 0.12,0.12 h 12.346 c 0.066,0 0.12,-0.054 0.12,-0.12 v -7.38 c 0,-0.12 -0.12,0 0,0 h 0.56 c 0.12,0 0,-0.12 0,0 v 7.38 c 0,0.066 0.054,0.12 0.12,0.12 h 12.346 c 0.066,0 0.12,-0.054 0.12,-0.12 v -7.38 c 0,-0.12 -0.12,0 0,0 h 0.56 c 0.12,0 0,-0.12 0,0 v 7.38 c 0,0.066 0.053,0.12 0.12,0.12 h 12.345 c 0.067,0 0.12,-0.054 0.12,-0.12 v -7.38 c 0,-0.12 -0.12,0 0.001,0 h 0.559 c 0.12,0 0,-0.12 0,0 v 7.38 c 0,0.066 0.054,0.12 0.12,0.12 h 12.346 c 0.067,0 0.12,-0.054 0.12,-0.12 v -7.38 c 0,-0.12 -0.12,0 0,0 h 0.56 c 0.12,0 0,-0.12 0,0 v 7.38 c 0,0.066 0.054,0.12 0.12,0.12 h 12.346 c 0.066,0 0.12,-0.054 0.12,-0.12 v -7.38 c 0,-0.12 -0.12,0 0,0 h 0.56 c 0.12,0 0,-0.12 0,0 v 7.38 c 0,0.066 0.054,0.12 0.12,0.12 h 13.40433 c 0.066,0 0.12,-0.054 0.12,-0.12 v -15 c 0,-0.066 -0.054,-0.12 -0.12,-0.12 H 9.0616667 c -0.066,0 -0.12,0.054 -0.12,0.12 v 15 c 0,0.066 0.054,0.12 0.12,0.12 z"
         stroke="#000000"
         stroke-width="0.24"
         id="path26"
         sodipodi:nodetypes="sssssssssssssssssssssssssssssssssssssssssssssssssssssssssssssssssssssssssssssssssssssssssssssssss" />
    </g>
    <g
       id="p-7"
       style="fill:none;stroke-linecap:round;stroke-linejoin:round"
       transform="translate(0.16357766,-296.73437)">
      <path
         d="M 9.0616667,322.4 H 22.466 c 0.066,0 0.12,-0.054 0.12,-0.12 v -7.38 c 0,-0.12 -0.12,0 0,0 h 0.56 c 0.12,0 0,-0.12 0,0 v 7.38 c 0,0.066 0.054,0.12 0.12,0.12 h 12.346 c 0.066,0 0.12,-0.054 0.12,-0.12 v -7.38 c 0,-0.12 -0.12,0 0,0 h 0.56 c 0.12,0 0,-0.12 0,0 v 7.38 c 0,0.066 0.053,0.12 0.12,0.12 h 12.346 c 0.066,0 0.12,-0.054 0.12,-0.12 v -7.38 c 0,-0.12 -0.12,0 -10e-4,0 h 0.561 c 0.12,0 0,-0.12 0,0 v 7.38 c 0,0.066 0.053,0.12 0.12,0.12 h 12.345 c 0.067,0 0.12,-0.054 0.12,-0.12 v -7.38 c 0,-0.12 -0.12,0 0,0 h 0.56 c 0.12,0 0,-0.12 0,0 v 7.38 c 0,0.066 0.054,0.12 0.12,0.12 h 12.346 c 0.066,0 0.12,-0.054 0.12,-0.12 v -7.38 c 0,-0.12 -0.12,0 0,0 h 0.56 c 0.12,0 0,-0.12 0,0 v 7.38 c 0,0.066 0.054,0.12 0.12,0.12 h 12.346 c 0.066,0 0.12,-0.054 0.12,-0.12 v -7.38 c 0,-0.12 -0.12,0 0,0 h 0.56 c 0.12,0 0,-0.12 0,0 v 7.38 c 0,0.066 0.054,0.12 0.12,0.12 h 12.346 c 0.066,0 0.12,-0.054 0.12,-0.12 v -7.38 c 0,-0.12 -0.12,0 0,0 h 0.56 c 0.12,0 0,-0.12 0,0 v 7.38 c 0,0.066 0.054,0.12 0.12,0.12 h 12.346 c 0.066,0 0.12,-0.054 0.12,-0.12 v -7.38 c 0,-0.12 -0.12,0 0,0 h 0.56 c 0.12,0 0,-0.12 0,0 v 7.38 c 0,0.066 0.053,0.12 0.12,0.12 h 12.345 c 0.067,0 0.12,-0.054 0.12,-0.12 v -7.38 c 0,-0.12 -0.12,0 0.001,0 h 0.559 c 0.12,0 0,-0.12 0,0 v 7.38 c 0,0.066 0.054,0.12 0.12,0.12 h 12.346 c 0.067,0 0.12,-0.054 0.12,-0.12 v -7.38 c 0,-0.12 -0.12,0 0,0 h 0.56 c 0.12,0 0,-0.12 0,0 v 7.38 c 0,0.066 0.054,0.12 0.12,0.12 h 12.346 c 0.066,0 0.12,-0.054 0.12,-0.12 v -7.38 c 0,-0.12 -0.12,0 0,0 h 0.56 c 0.12,0 0,-0.12 0,0 v 7.38 c 0,0.066 0.054,0.12 0.12,0.12 h 13.40433 c 0.066,0 0.12,-0.054 0.12,-0.12 v -15 c 0,-0.066 -0.054,-0.12 -0.12,-0.12 H 9.0616667 c -0.066,0 -0.12,0.054 -0.12,0.12 v 15 c 0,0.066 0.054,0.12 0.12,0.12 z"
         stroke="#000000"
         stroke-width="0.24"
         id="path29"
         sodipodi:nodetypes="sssssssssssssssssssssssssssssssssssssssssssssssssssssssssssssssssssssssssssssssssssssssssssssssss" />
    </g>
  </g>
</svg>
